<?xml version="1.0" encoding="UTF-8"?>
<!DOCTYPE svg PUBLIC "-//W3C//DTD SVG 1.1//EN" "http://www.w3.org/Graphics/SVG/1.1/DTD/svg11.dtd">
<!-- Creator: CorelDRAW -->
<svg xmlns="http://www.w3.org/2000/svg" xml:space="preserve" width="85mm" height="69.5679mm" version="1.1" style="shape-rendering:geometricPrecision; text-rendering:geometricPrecision; image-rendering:optimizeQuality; fill-rule:evenodd; clip-rule:evenodd"
viewBox="0 0 704.25 576.39"
 xmlns:xlink="http://www.w3.org/1999/xlink"
 xmlns:xodm="http://www.corel.com/coreldraw/odm/2003">
 <defs>
  <style type="text/css">
   <![CDATA[
    .fil8 {fill:none}
    .fil3 {fill:#46BB4D}
    .fil7 {fill:#74D192}
    .fil4 {fill:#896B5A}
    .fil6 {fill:#8BD494}
    .fil5 {fill:#996B66}
    .fil1 {fill:#A7FBFE}
    .fil0 {fill:url(#id1)}
    .fil2 {fill:url(#id2)}
   ]]>
  </style>
   <clipPath id="id0">
    <path d="M633.76 174.31l-3.63 -13.13c-1.75,-9.97 -1.81,-17.17 -10.18,-23.63 -12.06,3.44 -16.37,14.57 -20.78,25.22 -6.07,13.14 -11.45,26.88 -15.14,40.87 -3.51,13.34 -5.9,28.62 -3.46,42.33l3.47 9.64 -0.01 0.16c-0.46,12.75 3.22,20.44 16.84,20.26l0.85 -0.01 -0.09 7.04 -0.8 0.01c-23.35,0.36 -46.7,2.45 -69.72,6.38l-0.91 0.16 -0.06 -1.09 -0.95 -11.4 1.24 -0.04c5.91,-3.57 11.02,-7.66 13.3,-14.4 2.36,-6.97 1.74,-16.91 1.4,-24.2 -0.38,-8.29 0.5,-16.61 0.03,-24.89 -0.37,-6.54 -1.62,-14.26 -7.38,-18.31l-6.82 -4.79c-6.95,-4.89 -9.02,3.56 -8.5,8.97l0.02 0.24 -0.11 0.21c-2.54,5.05 -5.94,10.11 -7.8,15.43 -6.51,18.55 -16.43,50.77 6.74,62.03l1.16 -0.04 -0.17 12.96 0.02 0.76 -0.69 0.13c-36.36,7.03 -72.5,18.89 -105.08,36.64l-0.32 0.17 -0.34 -0.12c-72.07,-24.65 -153.91,-31.28 -229.7,-30.11l-4.12 0.06 3.77 -1.65c11.24,-4.92 18.93,-13.94 23.66,-25.11l0.12 -0.28 0.27 -0.14c20.62,-10.45 28.07,-43.15 29.03,-64.44 0.52,-11.61 -0.44,-24.94 -4.4,-35.94 -2.62,-7.26 -7.52,-15.88 -16,-16.9l-1.12 -0.14 0.47 -1.03c10.1,-22.34 11.15,-67.87 -10.37,-84.17l-0.38 -0.29 0.06 -0.48c1.14,-8.63 1.43,-18.46 -2.65,-26.43 -3.26,-6.38 -8.81,-10.68 -14.56,-14.7l-0.3 -0.21 -0.04 -0.37c-0.79,-6.53 -7.34,-12.86 -12.4,-16.49 -6.82,-4.9 -15.64,-8.6 -24.08,-9.03 -8.71,-0.45 -16.32,2.64 -21.21,10.12 -7.32,11.18 -6.57,28.77 -4.89,41.39l0.12 0.91 -0.91 0.03c-25.43,0.88 -36.46,27.98 -40.2,49.41 -2.2,12.61 -2.54,26.12 -0.91,38.8 1.18,9.18 3.89,21.11 9.54,28.66l0.51 0.67 -0.68 0.49c-9.3,6.72 -13.49,25.34 -14.12,36.09 -0.8,13.62 2.11,30.87 15.12,38.19l0.36 0.2 0.06 0.4c3.6,25.27 28.35,45.28 51.82,52.01l1.28 0.89 -0.2 0.69 -1.26 0.05c-48.94,2.46 -97.98,7.94 -146.32,16.03 -0.13,0.02 -1.09,0.25 -1.22,0.27l0 261.05 704.25 0 0 -283.45c-0.21,-0.04 -1.26,-0.32 -1.47,-0.37 -29.66,-6.1 -59.97,-9.27 -90.24,-9.55l-0.76 -0.01 -0.67 -8.02 0.76 -0.12c2.37,-0.38 4.74,-0.79 7.1,-1.16 10.77,-2.29 11.47,-2.89 12.84,-14.01l0.04 -0.33 0.25 -0.21c2.94,-2.43 4.77,-4.86 5.5,-8.62 0.79,-4.01 0.52,-9.17 0.63,-13.3 0.56,-21.23 -1.47,-41.99 -4.49,-62.97z"/>
   </clipPath>
  <linearGradient id="id1" gradientUnits="userSpaceOnUse" x1="479.83" y1="256.68" x2="479.84" y2="465.09">
   <stop offset="0" style="stop-opacity:1; stop-color:#99E261"/>
   <stop offset="1" style="stop-opacity:1; stop-color:#55C450"/>
  </linearGradient>
  <linearGradient id="id2" gradientUnits="userSpaceOnUse" xlink:href="#id1" x1="166.85" y1="370.25" x2="166.85" y2="546.47">
  </linearGradient>
 </defs>
 <g id="Слой_x0020_1">
  <metadata id="CorelCorpID_0Corel-Layer"/>
  <g>
  </g>
  <g style="clip-path:url(#id0)">
   <g id="_1611143307424">
    <g>
     <path class="fil0" d="M566.79 576.39l137.46 0 0 -284.35c-115.26,-24.05 -237.89,-3.13 -315.99,52.41 52.39,10.4 106.24,15.1 157.17,31.2 98.52,31.15 -14.82,62.46 -126.33,90.36 -116.68,29.19 36.08,83.87 147.69,110.38z"/>
     <path class="fil1" d="M566.79 576.39c-111.61,-26.5 -264.37,-81.18 -147.69,-110.38 111.51,-27.9 224.85,-59.21 126.33,-90.36 -18.16,-5.74 -36.69,-10.03 -55.39,-13.65 15.21,9.73 29.23,20.75 41.8,33.21 -9.37,19.14 -134.61,37.37 -205.28,45.05 -115.68,12.57 -204.63,35.47 -162.52,136.13l402.75 0z"/>
     <path class="fil2" d="M-0 576.39l164.04 0c-42.11,-100.66 46.84,-123.56 162.52,-136.13 70.67,-7.68 195.91,-25.91 205.28,-45.05 -119.99,-118.96 -372.03,-107.66 -531.84,-80.78l0 261.96z"/>
     <path class="fil3" d="M210.25 271.39c37.27,-18.89 38.56,-115.21 8.35,-118.84 10.19,-22.53 11.33,-68.54 -10.62,-85.17 3.27,-24.87 -4.7,-32.93 -17.55,-41.91 -2.74,-22.76 -75.2,-55.95 -64.22,26.2 -47.17,1.64 -51.39,92.57 -32.2,118.19 -15.19,10.97 -23.73,61.7 1.08,75.67 6.8,47.75 90.93,83.08 115.16,25.87z"/>
     <path class="fil4" d="M154.32 136.35l0.56 32.3 -4.6 81.6c-6.1,-7 -15.51,-26.6 -21.41,-31.61 -1.75,-1.49 -3.05,3.58 -2.56,5.86 6.33,29.62 26.21,32.35 22.14,80.4l-1.19 59.53c-0.13,6.7 10.11,11.59 19.58,5.85 3.68,-2.23 5.44,-5.5 6.17,-9.29 1.56,-8.19 -1.54,-45.71 -1.77,-56.82 -1.66,-20.37 -3.34,-42.11 -2.7,-62.53 0.77,-24.57 6.24,-35.69 11.8,-53.48l-2.59 -2.93 -10.94 16.45 -2.98 -56.45 -1.45 -11.42c-0.6,-4.73 -8.15,-2.84 -8.06,2.58z"/>
     <path class="fil5" d="M613.92 298.69l-2.02 -24.3 -11 0.53 -0.34 26.33c-0.08,6.46 14.04,5.59 13.36,-2.57z"/>
     <path class="fil6" d="M630.93 161c-2.17,-12.43 -2.43,-18.07 -10.81,-24.35 -12.36,3.31 -16.78,13.89 -21.72,25.8 -10.96,23.72 -23.3,57.67 -18.65,83.74l3.44 9.56c-0.95,26.64 18.13,21.62 35.93,18.8 10.92,-2.32 12.06,-2.98 13.52,-14.72 7.17,-5.93 6.12,-10.82 6.43,-22.53 0.57,-21.58 -1.45,-41.93 -4.51,-63.16l-3.64 -13.14z"/>
     <path class="fil5" d="M530.95 288.47l-1.44 -17.26 -7.81 0.38 -0.24 18.7c-0.06,4.59 9.97,3.97 9.49,-1.82z"/>
     <path class="fil7" d="M521.63 199.54c-2.8,5.57 -6.05,10.4 -7.84,15.53 -7.12,20.28 -16.18,51.9 7.34,63.14l9.53 -0.3c15.51,-9.33 16.3,-17.4 15.29,-39.46 -0.72,-15.72 3.37,-36.06 -7.7,-43.85l-6.82 -4.79c-7.22,-5.08 -10.48,2.72 -9.8,9.73z"/>
    </g>
   </g>
  </g>
  <path class="fil8" d="M633.76 174.31l-3.63 -13.13c-1.75,-9.97 -1.81,-17.17 -10.18,-23.63 -12.06,3.44 -16.37,14.57 -20.78,25.22 -6.07,13.14 -11.45,26.88 -15.14,40.87 -3.51,13.34 -5.9,28.62 -3.46,42.33l3.47 9.64 -0.01 0.16c-0.46,12.75 3.22,20.44 16.84,20.26l0.85 -0.01 -0.09 7.04 -0.8 0.01c-23.35,0.36 -46.7,2.45 -69.72,6.38l-0.91 0.16 -0.06 -1.09 -0.95 -11.4 1.24 -0.04c5.91,-3.57 11.02,-7.66 13.3,-14.4 2.36,-6.97 1.74,-16.91 1.4,-24.2 -0.38,-8.29 0.5,-16.61 0.03,-24.89 -0.37,-6.54 -1.62,-14.26 -7.38,-18.31l-6.82 -4.79c-6.95,-4.89 -9.02,3.56 -8.5,8.97l0.02 0.24 -0.11 0.21c-2.54,5.05 -5.94,10.11 -7.8,15.43 -6.51,18.55 -16.43,50.77 6.74,62.03l1.16 -0.04 -0.17 12.96 0.02 0.76 -0.69 0.13c-36.36,7.03 -72.5,18.89 -105.08,36.64l-0.32 0.17 -0.34 -0.12c-72.07,-24.65 -153.91,-31.28 -229.7,-30.11l-4.12 0.06 3.77 -1.65c11.24,-4.92 18.93,-13.94 23.66,-25.11l0.12 -0.28 0.27 -0.14c20.62,-10.45 28.07,-43.15 29.03,-64.44 0.52,-11.61 -0.44,-24.94 -4.4,-35.94 -2.62,-7.26 -7.52,-15.88 -16,-16.9l-1.12 -0.14 0.47 -1.03c10.1,-22.34 11.15,-67.87 -10.37,-84.17l-0.38 -0.29 0.06 -0.48c1.14,-8.63 1.43,-18.46 -2.65,-26.43 -3.26,-6.38 -8.81,-10.68 -14.56,-14.7l-0.3 -0.21 -0.04 -0.37c-0.79,-6.53 -7.34,-12.86 -12.4,-16.49 -6.82,-4.9 -15.64,-8.6 -24.08,-9.03 -8.71,-0.45 -16.32,2.64 -21.21,10.12 -7.32,11.18 -6.57,28.77 -4.89,41.39l0.12 0.91 -0.91 0.03c-25.43,0.88 -36.46,27.98 -40.2,49.41 -2.2,12.61 -2.54,26.12 -0.91,38.8 1.18,9.18 3.89,21.11 9.54,28.66l0.51 0.67 -0.68 0.49c-9.3,6.72 -13.49,25.34 -14.12,36.09 -0.8,13.62 2.11,30.87 15.12,38.19l0.36 0.2 0.06 0.4c3.6,25.27 28.35,45.28 51.82,52.01l1.28 0.89 -0.2 0.69 -1.26 0.05c-48.94,2.46 -97.98,7.94 -146.32,16.03 -0.13,0.02 -1.09,0.25 -1.22,0.27l0 261.05 704.25 0 0 -283.45c-0.21,-0.04 -1.26,-0.32 -1.47,-0.37 -29.66,-6.1 -59.97,-9.27 -90.24,-9.55l-0.76 -0.01 -0.67 -8.02 0.76 -0.12c2.37,-0.38 4.74,-0.79 7.1,-1.16 10.77,-2.29 11.47,-2.89 12.84,-14.01l0.04 -0.33 0.25 -0.21c2.94,-2.43 4.77,-4.86 5.5,-8.62 0.79,-4.01 0.52,-9.17 0.63,-13.3 0.56,-21.23 -1.47,-41.99 -4.49,-62.97z"/>
 </g>
</svg>
