<?xml version="1.0" encoding="UTF-8"?>
<!DOCTYPE svg PUBLIC "-//W3C//DTD SVG 1.1//EN" "http://www.w3.org/Graphics/SVG/1.1/DTD/svg11.dtd">
<!-- Creator: CorelDRAW -->
<svg xmlns="http://www.w3.org/2000/svg" xml:space="preserve" width="75.3308mm" height="18.2059mm" version="1.1" style="shape-rendering:geometricPrecision; text-rendering:geometricPrecision; image-rendering:optimizeQuality; fill-rule:evenodd; clip-rule:evenodd"
viewBox="0 0 1208.13 291.98"
 xmlns:xlink="http://www.w3.org/1999/xlink"
 xmlns:xodm="http://www.corel.com/coreldraw/odm/2003">
 <defs>
  <style type="text/css">
   <![CDATA[
    .fil0 {fill:#FEFEFE}
   ]]>
  </style>
 </defs>
 <g id="Слой_x0020_1">
  <metadata id="CorelCorpID_0Corel-Layer"/>
  <circle class="fil0" cx="8.03" cy="67.55" r="8.03"/>
  <circle class="fil0" cx="310.72" cy="12.44" r="12.44"/>
  <circle class="fil0" cx="432.77" cy="255.4" r="6.08"/>
  <circle class="fil0" cx="1198.81" cy="72.03" r="9.31"/>
  <circle class="fil0" cx="610.72" cy="126.93" r="4.01"/>
  <circle class="fil0" cx="753.97" cy="265.35" r="8.03"/>
  <path class="fil0" d="M1028.92 87.62c38.23,16.12 65.06,53.94 65.06,98.03 0,58.73 -47.61,106.34 -106.34,106.34 -39.94,0 -74.72,-22.02 -92.9,-54.57 17.5,14.74 40.1,23.63 64.77,23.63 55.56,0 100.6,-45.04 100.6,-100.6 0,-28.65 -11.98,-54.5 -31.19,-72.82z"/>
  <circle class="fil0" cx="817.74" cy="24.97" r="6.44"/>
  <circle class="fil0" cx="1072.42" cy="37.31" r="4.01"/>
  <circle class="fil0" cx="197.99" cy="142.68" r="4.01"/>
  <circle class="fil0" cx="448.43" cy="8.19" r="4.01"/>
  <circle class="fil0" cx="1175.69" cy="186.31" r="4.01"/>
 </g>
</svg>
