<?xml version="1.0" encoding="UTF-8"?>
<!DOCTYPE svg PUBLIC "-//W3C//DTD SVG 1.1//EN" "http://www.w3.org/Graphics/SVG/1.1/DTD/svg11.dtd">
<!-- Creator: CorelDRAW -->
<svg xmlns="http://www.w3.org/2000/svg" xml:space="preserve" width="85mm" height="69.668mm" version="1.1" style="shape-rendering:geometricPrecision; text-rendering:geometricPrecision; image-rendering:optimizeQuality; fill-rule:evenodd; clip-rule:evenodd"
viewBox="0 0 981.74 804.66"
 xmlns:xlink="http://www.w3.org/1999/xlink"
 xmlns:xodm="http://www.corel.com/coreldraw/odm/2003">
 <defs>
  <style type="text/css">
   <![CDATA[
    .fil4 {fill:#35135B}
    .fil5 {fill:#3F1F64}
    .fil0 {fill:url(#id0)}
    .fil6 {fill:url(#id1)}
    .fil3 {fill:url(#id2)}
    .fil2 {fill:url(#id3)}
    .fil1 {fill:url(#id4)}
   ]]>
  </style>
  <linearGradient id="id0" gradientUnits="userSpaceOnUse" x1="620.31" y1="536.21" x2="620.31" y2="722.72">
   <stop offset="0" style="stop-opacity:1; stop-color:#35135B"/>
   <stop offset="1" style="stop-opacity:1; stop-color:#8255B5"/>
  </linearGradient>
  <linearGradient id="id1" gradientUnits="userSpaceOnUse" x1="902.94" y1="222.71" x2="902.94" y2="310">
   <stop offset="0" style="stop-opacity:1; stop-color:#46296A"/>
   <stop offset="1" style="stop-opacity:1; stop-color:#A448B0"/>
  </linearGradient>
  <linearGradient id="id2" gradientUnits="objectBoundingBox" xlink:href="#id1" x1="114.149%" y1="15.8927%" x2="114.151%" y2="60.5484%">
  </linearGradient>
  <linearGradient id="id3" gradientUnits="userSpaceOnUse" x1="153.56" y1="445.45" x2="153.57" y2="726.79">
   <stop offset="0" style="stop-opacity:1; stop-color:#43196B"/>
   <stop offset="1" style="stop-opacity:1; stop-color:#8659BA"/>
  </linearGradient>
  <linearGradient id="id4" gradientUnits="userSpaceOnUse" x1="787.97" y1="738.83" x2="787.97" y2="524.83">
   <stop offset="0" style="stop-opacity:1; stop-color:#80709C"/>
   <stop offset="1" style="stop-opacity:1; stop-color:#9593BC"/>
  </linearGradient>
 </defs>
 <g id="Слой_x0020_1">
  <metadata id="CorelCorpID_0Corel-Layer"/>
  <path class="fil0" d="M790.11 804.66l191.63 0 0 -396.39c-160.67,-33.53 -331.62,-4.36 -440.5,73.06 73.03,14.5 148.11,21.05 219.1,43.49 137.34,43.42 -20.66,87.07 -176.11,125.96 -162.66,40.7 50.29,116.92 205.88,153.87z"/>
  <path class="fil1" d="M790.11 804.66c-155.59,-36.95 -368.54,-113.17 -205.88,-153.87 155.45,-38.89 313.45,-82.54 176.11,-125.96 -25.31,-8 -51.14,-13.98 -77.22,-19.03 21.2,13.56 40.75,28.92 58.27,46.29 -13.06,26.68 -187.64,52.09 -286.16,62.8 -161.26,17.53 -285.26,49.45 -226.56,189.77l561.44 0z"/>
  <path class="fil2" d="M-0 804.66l228.67 0c-58.7,-140.32 65.29,-172.24 226.56,-189.77 98.51,-10.71 273.1,-36.12 286.16,-62.8 -167.27,-165.84 -518.62,-150.08 -741.39,-112.6l0 365.17z"/>
  <path class="fil3" d="M293.09 379.47c51.95,-26.33 53.75,-160.6 11.64,-165.67 14.2,-31.4 15.79,-95.54 -14.81,-118.73 4.56,-34.67 -6.55,-45.9 -24.46,-58.43 -3.82,-31.73 -104.83,-78 -89.52,36.52 -65.75,2.28 -71.64,129.04 -44.89,164.76 -21.18,15.3 -33.08,86.01 1.5,105.49 9.48,66.57 126.75,115.82 160.54,36.06z"/>
  <path class="fil4" d="M215.13 191.22l0.77 45.02 -6.41 113.75c-8.51,-9.75 -21.62,-37.08 -29.84,-44.07 -2.45,-2.08 -4.25,4.99 -3.57,8.16 8.82,41.29 36.54,45.09 30.87,112.08l-1.66 82.98c-0.18,9.33 14.1,16.16 27.29,8.15 5.12,-3.11 7.59,-7.67 8.6,-12.95 2.18,-11.41 -2.14,-63.72 -2.47,-79.21 -2.32,-28.4 -4.66,-58.7 -3.76,-87.17 1.08,-34.25 8.7,-49.75 16.45,-74.55l-3.61 -4.09 -15.25 22.93 -4.15 -78.7 -2.03 -15.92c-0.84,-6.59 -11.37,-3.96 -11.23,3.6z"/>
  <path class="fil5" d="M855.82 417.54l-2.82 -33.88 -15.33 0.74 -0.48 36.71c-0.12,9.01 19.58,7.8 18.63,-3.58z"/>
  <path class="fil6" d="M879.53 225.59c-3.03,-17.32 -3.39,-25.19 -15.07,-33.95 -17.23,4.62 -23.4,19.37 -30.27,35.96 -15.28,33.06 -32.48,80.39 -25.99,116.74l4.8 13.32c-1.33,37.14 25.28,30.14 50.08,26.21 15.23,-3.23 16.81,-4.15 18.84,-20.52 10,-8.26 8.54,-15.08 8.97,-31.41 0.8,-30.08 -2.02,-58.45 -6.28,-88.05l-5.07 -18.31z"/>
  <path class="fil5" d="M740.16 403.29l-2 -24.05 -10.89 0.53 -0.34 26.07c-0.08,6.4 13.9,5.54 13.23,-2.54z"/>
  <path class="fil3" d="M727.16 279.32c-3.91,7.76 -8.43,14.5 -10.94,21.64 -9.93,28.27 -22.56,72.35 10.24,88.02l13.29 -0.41c21.62,-13 22.73,-24.26 21.31,-55 -1.01,-21.92 4.7,-50.27 -10.73,-61.12l-9.5 -6.68c-10.07,-7.08 -14.6,3.8 -13.67,13.56z"/>
 </g>
</svg>
